<svg width="77" height="78" viewBox="0 0 77 78" fill="none" xmlns="http://www.w3.org/2000/svg">
<g filter="url(#filter0_ii_110_1129)">
<path d="M35.8242 1.12306C37.2616 -0.374399 39.6565 -0.3744 41.0939 1.12306L46.1169 6.35569C47.0119 7.28806 48.333 7.67801 49.5909 7.38109L56.6114 5.72387C58.6233 5.24897 60.6279 6.53687 61.0323 8.56407L62.4715 15.7786C62.7221 17.035 63.6127 18.0682 64.8184 18.5014L71.6732 20.9641C73.6038 21.6577 74.5847 23.8049 73.845 25.7183L71.1759 32.6229C70.7173 33.8092 70.9089 35.1487 71.6816 36.1589L76.1665 42.022C77.4101 43.6478 77.075 45.9782 75.4236 47.1877L69.5039 51.5232C68.475 52.2767 67.9137 53.5124 68.023 54.783L68.657 62.1489C68.8335 64.2003 67.2805 65.9921 65.2248 66.1086L57.9989 66.5184C56.7134 66.5913 55.5613 67.3356 54.9664 68.4775L51.5917 74.9556C50.6337 76.7945 48.339 77.468 46.5391 76.4387L40.2724 72.8545C39.1489 72.2119 37.7692 72.2119 36.6457 72.8545L30.379 76.4387C28.5791 77.468 26.2844 76.7945 25.3264 74.9556L21.9517 68.4775C21.3568 67.3356 20.2047 66.5913 18.9192 66.5184L11.6933 66.1086C9.63765 65.9921 8.08458 64.2003 8.26113 62.1489L8.89508 54.783C9.00444 53.5124 8.44312 52.2767 7.41423 51.5232L1.49456 47.1877C-0.156863 45.9782 -0.492005 43.6478 0.751653 42.022L5.23652 36.1589C6.00926 35.1487 6.20083 33.8092 5.74223 32.6229L3.07312 25.7183C2.33344 23.8049 3.31429 21.6577 5.24491 20.9641L12.0997 18.5014C13.3054 18.0682 14.196 17.035 14.4466 15.7786L15.8858 8.56407C16.2902 6.53687 18.2948 5.24897 20.3067 5.72387L27.3273 7.38109C28.5851 7.67801 29.9062 7.28806 30.8012 6.35569L35.8242 1.12306Z" fill="#D9DBDD"/>
</g>
<path d="M66.3398 39.6034C66.3398 55.0457 53.8213 67.5641 38.379 67.5641C22.9368 67.5641 10.4183 55.0457 10.4183 39.6034C10.4183 24.1611 22.9368 11.6427 38.379 11.6427C53.8213 11.6427 66.3398 24.1611 66.3398 39.6034ZM16.1748 39.6034C16.1748 51.8665 26.116 61.8077 38.379 61.8077C50.6421 61.8077 60.5833 51.8665 60.5833 39.6034C60.5833 27.3403 50.6421 17.3991 38.379 17.3991C26.116 17.3991 16.1748 27.3403 16.1748 39.6034Z" fill="white" fill-opacity="0.5"/>
<path d="M38.379 14.5209C38.379 12.9313 39.6711 11.6274 41.2523 11.7907C45.7669 12.2571 50.1155 13.8174 53.9132 16.3549C58.5113 19.4273 62.0951 23.7942 64.2114 28.9033C66.3277 34.0125 66.8814 39.6344 65.8025 45.0583C64.7236 50.4821 62.0606 55.4642 58.1503 59.3746C54.2399 63.285 49.2578 65.948 43.8339 67.0269C38.4101 68.1057 32.7881 67.552 27.6789 65.4357C22.5698 63.3195 18.2029 59.7357 15.1306 55.1376C12.5931 51.3399 11.0327 46.9912 10.5663 42.4766C10.403 40.8955 11.707 39.6034 13.2966 39.6034V39.6034C14.8861 39.6034 16.1556 40.8974 16.361 42.4736C16.8009 45.8476 18.0123 49.089 19.9169 51.9394C22.3567 55.5909 25.8245 58.4369 29.8818 60.1175C33.9391 61.7981 38.4037 62.2378 42.7109 61.381C47.0181 60.5243 50.9745 58.4095 54.0798 55.3042C57.1852 52.1989 59.2999 48.2425 60.1567 43.9353C61.0134 39.628 60.5737 35.1635 58.8931 31.1062C57.2125 27.0489 54.3666 23.5811 50.7151 21.1412C47.8646 19.2366 44.6233 18.0252 41.2493 17.5854C39.673 17.3799 38.379 16.1105 38.379 14.5209V14.5209Z" fill="white" fill-opacity="0.7"/>
<g clip-path="url(#clip0_110_1129)">
<path d="M44.7359 33.6163H43.6347V31.4139C43.6347 28.3746 41.168 25.908 38.1287 25.908C35.0895 25.908 32.6228 28.3746 32.6228 31.4139V33.6163H31.5216C30.3103 33.6163 29.3192 34.6074 29.3192 35.8187V46.8306C29.3192 48.0419 30.3103 49.033 31.5216 49.033H44.7359C45.9472 49.033 46.9383 48.0419 46.9383 46.8306V35.8187C46.9383 34.6074 45.9472 33.6163 44.7359 33.6163ZM38.1287 43.527C36.9174 43.527 35.9264 42.5359 35.9264 41.3246C35.9264 40.1133 36.9174 39.1222 38.1287 39.1222C39.34 39.1222 40.3311 40.1133 40.3311 41.3246C40.3311 42.5359 39.34 43.527 38.1287 43.527ZM34.8252 33.6163V31.4139C34.8252 29.5859 36.3008 28.1103 38.1287 28.1103C39.9567 28.1103 41.4323 29.5859 41.4323 31.4139V33.6163H34.8252Z" fill="white"/>
</g>
<defs>
<filter id="filter0_ii_110_1129" x="-3.025" y="-2.01667" width="81.9598" height="80.9547" filterUnits="userSpaceOnUse" color-interpolation-filters="sRGB">
<feFlood flood-opacity="0" result="BackgroundImageFix"/>
<feBlend mode="normal" in="SourceGraphic" in2="BackgroundImageFix" result="shape"/>
<feColorMatrix in="SourceAlpha" type="matrix" values="0 0 0 0 0 0 0 0 0 0 0 0 0 0 0 0 0 0 127 0" result="hardAlpha"/>
<feOffset dx="2.01667" dy="2.01667"/>
<feGaussianBlur stdDeviation="2.26875"/>
<feComposite in2="hardAlpha" operator="arithmetic" k2="-1" k3="1"/>
<feColorMatrix type="matrix" values="0 0 0 0 0.887695 0 0 0 0 0.887695 0 0 0 0 0.887695 0 0 0 1 0"/>
<feBlend mode="normal" in2="shape" result="effect1_innerShadow_110_1129"/>
<feColorMatrix in="SourceAlpha" type="matrix" values="0 0 0 0 0 0 0 0 0 0 0 0 0 0 0 0 0 0 127 0" result="hardAlpha"/>
<feOffset dx="-3.025" dy="-2.01667"/>
<feGaussianBlur stdDeviation="2.52083"/>
<feComposite in2="hardAlpha" operator="arithmetic" k2="-1" k3="1"/>
<feColorMatrix type="matrix" values="0 0 0 0 0.829362 0 0 0 0 0.829362 0 0 0 0 0.829362 0 0 0 0.5 0"/>
<feBlend mode="normal" in2="effect1_innerShadow_110_1129" result="effect2_innerShadow_110_1129"/>
</filter>
<clipPath id="clip0_110_1129">
<rect width="26.4286" height="26.4286" fill="white" transform="translate(24.9144 24.8068)"/>
</clipPath>
</defs>
</svg>
