<svg width="93" height="93" viewBox="0 0 93 93" fill="none" xmlns="http://www.w3.org/2000/svg">
<g filter="url(#filter0_d_1_4461)">
<path d="M40.987 6.16905C43.7631 3.27704 48.3883 3.27704 51.1644 6.16905L51.7115 6.73902C53.44 8.53969 55.9914 9.2928 58.4207 8.71936L59.176 8.54107C63.0615 7.6239 66.9331 10.1112 67.714 14.0263L67.8959 14.9379C68.3799 17.3644 70.0999 19.3598 72.4284 20.1964L73.2788 20.5019C77.0073 21.8414 78.9016 25.9882 77.4731 29.6836L77.1015 30.645C76.2158 32.9361 76.5857 35.5229 78.0781 37.4739L78.6998 38.2866C81.1016 41.4266 80.4544 45.9271 77.265 48.263L76.4777 48.8396C74.4907 50.2949 73.4066 52.6813 73.6178 55.1352L73.7032 56.1274C74.0442 60.0891 71.0448 63.5496 67.0747 63.7747L66.2469 63.8216C63.7644 63.9624 61.5393 65.3999 60.3905 67.6052L59.9964 68.3615C58.1464 71.9128 53.7146 73.2137 50.2387 71.2256L49.5777 70.8476C47.4079 69.6066 44.7434 69.6066 42.5737 70.8476L41.9127 71.2256C38.4368 73.2137 34.0049 71.9128 32.1549 68.3615L31.7609 67.6052C30.6121 65.3999 28.387 63.9624 25.9044 63.8216L25.0766 63.7747C21.1066 63.5496 18.1072 60.0891 18.4482 56.1274L18.5336 55.1352C18.7448 52.6813 17.6607 50.2949 15.6736 48.8396L14.8864 48.263C11.697 45.9271 11.0497 41.4266 13.4516 38.2866L14.0732 37.4739C15.5656 35.5229 15.9356 32.9361 15.0499 30.645L14.6783 29.6836C13.2497 25.9882 15.144 21.8414 18.8726 20.5019L19.723 20.1964C22.0515 19.3598 23.7715 17.3644 24.2555 14.9379L24.4373 14.0263C25.2183 10.1112 29.0899 7.6239 32.9753 8.54107L33.7306 8.71936C36.1599 9.2928 38.7114 8.5397 40.4399 6.73903L40.987 6.16905Z" fill="url(#paint0_linear_1_4461)"/>
<path d="M40.987 6.16905C43.7631 3.27704 48.3883 3.27704 51.1644 6.16905L51.7115 6.73902C53.44 8.53969 55.9914 9.2928 58.4207 8.71936L59.176 8.54107C63.0615 7.6239 66.9331 10.1112 67.714 14.0263L67.8959 14.9379C68.3799 17.3644 70.0999 19.3598 72.4284 20.1964L73.2788 20.5019C77.0073 21.8414 78.9016 25.9882 77.4731 29.6836L77.1015 30.645C76.2158 32.9361 76.5857 35.5229 78.0781 37.4739L78.6998 38.2866C81.1016 41.4266 80.4544 45.9271 77.265 48.263L76.4777 48.8396C74.4907 50.2949 73.4066 52.6813 73.6178 55.1352L73.7032 56.1274C74.0442 60.0891 71.0448 63.5496 67.0747 63.7747L66.2469 63.8216C63.7644 63.9624 61.5393 65.3999 60.3905 67.6052L59.9964 68.3615C58.1464 71.9128 53.7146 73.2137 50.2387 71.2256L49.5777 70.8476C47.4079 69.6066 44.7434 69.6066 42.5737 70.8476L41.9127 71.2256C38.4368 73.2137 34.0049 71.9128 32.1549 68.3615L31.7609 67.6052C30.6121 65.3999 28.387 63.9624 25.9044 63.8216L25.0766 63.7747C21.1066 63.5496 18.1072 60.0891 18.4482 56.1274L18.5336 55.1352C18.7448 52.6813 17.6607 50.2949 15.6736 48.8396L14.8864 48.263C11.697 45.9271 11.0497 41.4266 13.4516 38.2866L14.0732 37.4739C15.5656 35.5229 15.9356 32.9361 15.0499 30.645L14.6783 29.6836C13.2497 25.9882 15.144 21.8414 18.8726 20.5019L19.723 20.1964C22.0515 19.3598 23.7715 17.3644 24.2555 14.9379L24.4373 14.0263C25.2183 10.1112 29.0899 7.6239 32.9753 8.54107L33.7306 8.71936C36.1599 9.2928 38.7114 8.5397 40.4399 6.73903L40.987 6.16905Z" fill="url(#paint1_linear_1_4461)" fill-opacity="0.1"/>
<path d="M20.4221 38.3689C20.4221 24.2009 31.9075 12.7156 46.0754 12.7156C60.2433 12.7156 71.7287 24.2009 71.7287 38.3688V38.8964C71.7287 53.0644 60.2433 64.5497 46.0754 64.5497C31.9075 64.5497 20.4221 53.0644 20.4221 38.8965V38.3689Z" fill="black" fill-opacity="0.04"/>
<path d="M46.0754 15.3494C58.7888 15.3494 69.095 25.6556 69.095 38.3689V38.8962C69.095 51.6096 58.7888 61.9157 46.0754 61.9158C33.3621 61.9158 23.0559 51.6096 23.0559 38.8962V38.3689C23.0559 25.6555 33.3621 15.3494 46.0754 15.3494Z" stroke="white" stroke-opacity="0.3" stroke-width="5.26742"/>
<path opacity="0.8" d="M41.8479 43.3159L36.9222 38.3396C36.657 38.071 36.2969 37.9201 35.9215 37.9201C35.546 37.9201 35.1859 38.071 34.9207 38.3396C34.3671 38.8989 34.3671 39.8024 34.9207 40.3617L40.8543 46.3562C41.4079 46.9155 42.3022 46.9155 42.8558 46.3562L57.8742 31.1834C58.4278 30.6241 58.4278 29.7206 57.8742 29.1613C57.609 28.8927 57.2489 28.7418 56.8734 28.7418C56.498 28.7418 56.1379 28.8927 55.8727 29.1613L41.8479 43.3159Z" fill="white" stroke="#FDFDFD" stroke-width="1.05348"/>
<path d="M72.0757 38.8677C72.0757 53.2271 60.4351 64.8677 46.0757 64.8677C31.7163 64.8677 20.0757 53.2271 20.0757 38.8677C20.0757 24.5083 31.7163 12.8677 46.0757 12.8677C60.4351 12.8677 72.0757 24.5083 72.0757 38.8677ZM25.4285 38.8677C25.4285 50.2708 34.6725 59.5149 46.0757 59.5149C57.4788 59.5149 66.7229 50.2708 66.7229 38.8677C66.7229 27.4645 57.4788 18.2204 46.0757 18.2204C34.6725 18.2204 25.4285 27.4645 25.4285 38.8677Z" fill="white" fill-opacity="0.5"/>
</g>
<defs>
<filter id="filter0_d_1_4461" x="-2.92432" y="-3.13232" width="98" height="98" filterUnits="userSpaceOnUse" color-interpolation-filters="sRGB">
<feFlood flood-opacity="0" result="BackgroundImageFix"/>
<feColorMatrix in="SourceAlpha" type="matrix" values="0 0 0 0 0 0 0 0 0 0 0 0 0 0 0 0 0 0 127 0" result="hardAlpha"/>
<feOffset dy="8"/>
<feGaussianBlur stdDeviation="6"/>
<feComposite in2="hardAlpha" operator="out"/>
<feColorMatrix type="matrix" values="0 0 0 0 0.917647 0 0 0 0 0.690196 0 0 0 0 0.12549 0 0 0 0.4 0"/>
<feBlend mode="normal" in2="BackgroundImageFix" result="effect1_dropShadow_1_4461"/>
<feBlend mode="normal" in="SourceGraphic" in2="effect1_dropShadow_1_4461" result="shape"/>
</filter>
<linearGradient id="paint0_linear_1_4461" x1="22.069" y1="7.79769" x2="62.6576" y2="71.7743" gradientUnits="userSpaceOnUse">
<stop stop-color="#FFE092"/>
<stop offset="1" stop-color="#E3A302"/>
</linearGradient>
<linearGradient id="paint1_linear_1_4461" x1="-3.63266" y1="-4.91333" x2="52.5803" y2="95.4218" gradientUnits="userSpaceOnUse">
<stop stop-color="white"/>
<stop offset="1" stop-color="white" stop-opacity="0"/>
</linearGradient>
</defs>
</svg>
